<svg width="200" height="200" viewBox="0 0 200 200" fill="none" xmlns="http://www.w3.org/2000/svg">
<path d="M155.082 58.3939C158.258 60.3782 162.443 59.4107 164.429 56.2339C166.413 53.0588 165.446 48.873 162.269 46.8871C159.092 44.9029 154.908 45.8687 152.924 49.0455C150.936 52.2231 151.904 56.408 155.082 58.3939ZM174.78 40.0164L189.838 72.8492C189.968 73.1762 190.077 73.5 190.17 73.8185C190.37 74.5235 190.475 75.2038 190.492 75.857C190.539 77.4496 190.105 78.684 189.292 80.0592L137.98 162.994C135.752 166.563 130.656 167.739 127.088 165.509L74.2178 132.472C70.6495 130.244 69.473 125.147 71.7027 121.581L122.472 39.5187C123.993 37.035 125.682 35.0974 129.229 34.8486L165.292 34.0688C167.964 33.9559 169.493 33.8334 171.296 35.0124C173.154 36.1209 173.794 38.095 174.78 40.0164Z" fill="url(#paint0_linear_2866_897)"/>
<path d="M70.6427 126.729C80.0558 125.996 90.0678 125.6 100.45 125.6C122.084 125.6 142.109 127.318 158.454 130.237L137.985 162.994C135.753 166.563 130.657 167.739 127.092 165.509L74.2213 132.472C72.2005 131.21 70.9476 129.029 70.6461 126.728L70.6427 126.729Z" fill="url(#paint1_linear_2866_897)"/>
<path fill-rule="evenodd" clip-rule="evenodd" d="M117.466 103.284C120.68 103.285 123.289 102.316 125.297 100.379C127.306 98.4411 128.366 95.8633 128.479 92.6415C128.482 89.423 127.522 86.8135 125.594 84.8072C123.665 82.8035 121.081 81.7453 117.845 81.6323C114.627 81.6323 112.014 82.5998 110.006 84.5356C108 86.4714 106.939 89.0465 106.826 92.2632C106.826 95.4867 107.795 98.1011 109.734 100.107C111.675 102.114 114.251 103.172 117.466 103.284ZM109.674 123.717L119.761 123.893L153.107 84.0673L143.058 83.8915L109.672 123.717H109.674ZM117.588 96.3058C116.486 96.2658 115.593 95.8827 114.907 95.1573C114.223 94.4336 113.878 93.5086 113.875 92.3797C113.917 91.2381 114.293 90.3241 115.005 89.6387C115.715 88.9515 116.62 88.6085 117.722 88.6068C118.848 88.6467 119.748 89.021 120.423 89.7328C121.098 90.4429 121.436 91.3721 121.435 92.5145C121.395 93.6392 121.027 94.5516 120.326 95.2506C119.626 95.9523 118.712 96.3041 117.588 96.3058ZM146.595 124.958C150.038 124.96 152.837 123.92 154.993 121.839C157.148 119.759 158.285 116.985 158.409 113.518C158.407 110.049 157.365 107.237 155.285 105.082C153.203 102.929 150.442 101.792 147.001 101.672C143.56 101.67 140.761 102.711 138.605 104.792C136.45 106.872 135.31 109.646 135.189 113.113C135.189 116.582 136.231 119.394 138.313 121.547C140.395 123.704 143.156 124.839 146.595 124.958ZM146.726 117.456C145.551 117.41 144.596 117.001 143.869 116.225C143.14 115.448 142.773 114.456 142.771 113.247C142.816 112.011 143.219 111.023 143.974 110.285C144.729 109.547 145.692 109.177 146.87 109.177C148.073 109.219 149.034 109.621 149.752 110.387C150.471 111.152 150.829 112.151 150.827 113.387C150.786 114.595 150.393 115.576 149.648 116.326C148.903 117.077 147.929 117.453 146.726 117.456Z" fill="#5439D5"/>
<path d="M64.3902 66.1187H123.917C131.717 66.2732 138.026 72.613 138.026 80.4275C138.026 88.2395 131.719 94.6307 123.917 94.6817H94.7565V145.303H56.3191C47.5812 145.303 40.1914 139.519 37.7714 131.57H15.8974C12.6408 131.57 10 128.931 10 125.674V85.75C10 82.4917 12.6408 79.8527 15.8974 79.8527H37.7714C40.1914 71.9048 47.5812 66.1195 56.3191 66.1195L64.3902 66.1187Z" fill="#FFC338"/>
<path d="M56.3208 145.303H94.7582V125.64C72.2311 125.955 51.7009 128.135 35.6114 131.57H37.7731C40.1914 139.519 47.5812 145.303 56.3191 145.303H56.3208Z" fill="url(#paint2_linear_2866_897)"/>
<path d="M28.7957 106.625C28.7957 104.16 30.7952 102.161 33.2585 102.161C35.7235 102.161 37.723 104.16 37.723 106.625C37.723 109.09 35.7235 111.089 33.2585 111.089C30.7952 111.088 28.7957 109.09 28.7957 106.625Z" fill="#F0A800"/>
<path d="M46.8388 106.625C46.8388 104.16 48.8366 102.161 51.3025 102.161C53.7666 102.161 55.7678 104.16 55.7678 106.625C55.7678 109.09 53.7675 111.089 51.3025 111.089C48.8366 111.088 46.8388 109.09 46.8388 106.625Z" fill="#F0A800"/>
<path d="M64.8777 106.625C64.8777 104.16 66.8772 102.161 69.3422 102.161C71.8072 102.161 73.8067 104.16 73.8067 106.625C73.8067 109.09 71.8072 111.089 69.3422 111.089C66.8772 111.088 64.8777 109.09 64.8777 106.625Z" fill="#F0A800"/>
<defs>
<linearGradient id="paint0_linear_2866_897" x1="68.7943" y1="91.8727" x2="191.74" y2="104.762" gradientUnits="userSpaceOnUse">
<stop stop-color="#6313FB"/>
<stop offset="0.8196" stop-color="#DB4DFF"/>
<stop offset="1" stop-color="#DB4DFF"/>
</linearGradient>
<linearGradient id="paint1_linear_2866_897" x1="72.326" y1="123.68" x2="161.96" y2="154.59" gradientUnits="userSpaceOnUse">
<stop stop-color="#2C3CC9"/>
<stop offset="1" stop-color="#8C34E7"/>
</linearGradient>
<linearGradient id="paint2_linear_2866_897" x1="35.6102" y1="135.469" x2="94.7574" y2="135.469" gradientUnits="userSpaceOnUse">
<stop stop-color="#29DB70"/>
<stop offset="1" stop-color="#DAB913"/>
</linearGradient>
</defs>
</svg>
